<svg width="400" height="120" viewBox="0 0 400 120" xmlns="http://www.w3.org/2000/svg">
  <defs>
    <filter id="glow" x="-50%" y="-50%" width="200%" height="200%">
      <feGaussianBlur stdDeviation="3" result="coloredBlur"/>
      <feMerge> 
        <feMergeNode in="coloredBlur"/>
        <feMergeNode in="SourceGraphic"/>
      </feMerge>
    </filter>
    <filter id="starGlow" x="-50%" y="-50%" width="200%" height="200%">
      <feGaussianBlur stdDeviation="2" result="coloredBlur"/>
      <feMerge> 
        <feMergeNode in="coloredBlur"/>
        <feMergeNode in="SourceGraphic"/>
      </feMerge>
    </filter>
  </defs>
  
  <!-- Background -->
  <rect width="400" height="120" fill="black"/>
  
  <!-- Dotify text with cursive/script style and star pattern -->
  <g filter="url(#starGlow)" fill="white">
    <!-- D - Cursive style -->
    <path d="M20 30 Q20 20 30 20 Q40 20 40 30 Q40 40 30 40 Q20 40 20 30 Z M25 25 Q30 25 30 30 Q30 35 25 35 Q25 30 25 25 Z" fill="white"/>
    
    <!-- o - Cursive style -->
    <path d="M60 30 Q60 20 70 20 Q80 20 80 30 Q80 40 70 40 Q60 40 60 30 Z M65 25 Q70 25 70 30 Q70 35 65 35 Q65 30 65 25 Z" fill="white"/>
    
    <!-- t - Cursive style with loop -->
    <path d="M100 20 L100 40 M95 20 L105 20 M100 30 Q105 30 110 25 Q115 20 120 20 Q125 20 125 25 Q125 30 120 30 Q115 30 110 35 Q105 40 100 40" stroke="white" stroke-width="2" fill="none"/>
    
    <!-- i - Cursive style -->
    <path d="M140 20 L140 40 M140 15 Q145 15 150 15" stroke="white" stroke-width="2" fill="none"/>
    
    <!-- f - Cursive style -->
    <path d="M170 20 L170 40 M165 20 L175 20 M170 30 Q175 30 180 25 Q185 20 190 20" stroke="white" stroke-width="2" fill="none"/>
    
    <!-- y - Cursive style -->
    <path d="M210 20 Q215 20 220 25 Q225 30 230 35 Q235 40 240 40 Q245 40 245 35 Q245 30 240 25 Q235 20 230 15 Q225 10 220 10 Q215 10 210 15" stroke="white" stroke-width="2" fill="none"/>
  </g>
  
  <!-- typrr text with pixelated style -->
  <g transform="translate(50, 80)" fill="white" filter="url(#glow)">
    <!-- t -->
    <rect x="0" y="0" width="4" height="4" fill="white"/>
    <rect x="4" y="0" width="4" height="4" fill="white"/>
    <rect x="8" y="0" width="4" height="4" fill="white"/>
    <rect x="12" y="0" width="4" height="4" fill="white"/>
    <rect x="4" y="4" width="4" height="4" fill="white"/>
    <rect x="4" y="8" width="4" height="4" fill="white"/>
    <rect x="4" y="12" width="4" height="4" fill="white"/>
    <rect x="4" y="16" width="4" height="4" fill="white"/>
    <rect x="4" y="20" width="4" height="4" fill="white"/>
    
    <!-- y -->
    <rect x="20" y="0" width="4" height="4" fill="white"/>
    <rect x="24" y="0" width="4" height="4" fill="white"/>
    <rect x="28" y="0" width="4" height="4" fill="white"/>
    <rect x="20" y="4" width="4" height="4" fill="white"/>
    <rect x="24" y="4" width="4" height="4" fill="white"/>
    <rect x="28" y="4" width="4" height="4" fill="white"/>
    <rect x="20" y="8" width="4" height="4" fill="white"/>
    <rect x="24" y="8" width="4" height="4" fill="white"/>
    <rect x="28" y="8" width="4" height="4" fill="white"/>
    <rect x="20" y="12" width="4" height="4" fill="white"/>
    <rect x="24" y="12" width="4" height="4" fill="white"/>
    <rect x="28" y="12" width="4" height="4" fill="white"/>
    <rect x="24" y="16" width="4" height="4" fill="white"/>
    <rect x="24" y="20" width="4" height="4" fill="white"/>
    
    <!-- p -->
    <rect x="36" y="0" width="4" height="4" fill="white"/>
    <rect x="40" y="0" width="4" height="4" fill="white"/>
    <rect x="44" y="0" width="4" height="4" fill="white"/>
    <rect x="48" y="0" width="4" height="4" fill="white"/>
    <rect x="36" y="4" width="4" height="4" fill="white"/>
    <rect x="44" y="4" width="4" height="4" fill="white"/>
    <rect x="36" y="8" width="4" height="4" fill="white"/>
    <rect x="40" y="8" width="4" height="4" fill="white"/>
    <rect x="44" y="8" width="4" height="4" fill="white"/>
    <rect x="36" y="12" width="4" height="4" fill="white"/>
    <rect x="44" y="12" width="4" height="4" fill="white"/>
    <rect x="36" y="16" width="4" height="4" fill="white"/>
    <rect x="40" y="16" width="4" height="4" fill="white"/>
    <rect x="44" y="16" width="4" height="4" fill="white"/>
    <rect x="36" y="20" width="4" height="4" fill="white"/>
    <rect x="40" y="20" width="4" height="4" fill="white"/>
    <rect x="44" y="20" width="4" height="4" fill="white"/>
    
    <!-- r -->
    <rect x="56" y="0" width="4" height="4" fill="white"/>
    <rect x="60" y="0" width="4" height="4" fill="white"/>
    <rect x="64" y="0" width="4" height="4" fill="white"/>
    <rect x="56" y="4" width="4" height="4" fill="white"/>
    <rect x="60" y="4" width="4" height="4" fill="white"/>
    <rect x="64" y="4" width="4" height="4" fill="white"/>
    <rect x="56" y="8" width="4" height="4" fill="white"/>
    <rect x="60" y="8" width="4" height="4" fill="white"/>
    <rect x="64" y="8" width="4" height="4" fill="white"/>
    <rect x="56" y="12" width="4" height="4" fill="white"/>
    <rect x="60" y="12" width="4" height="4" fill="white"/>
    <rect x="56" y="16" width="4" height="4" fill="white"/>
    <rect x="60" y="16" width="4" height="4" fill="white"/>
    <rect x="56" y="20" width="4" height="4" fill="white"/>
    <rect x="60" y="20" width="4" height="4" fill="white"/>
    
    <!-- r -->
    <rect x="72" y="0" width="4" height="4" fill="white"/>
    <rect x="76" y="0" width="4" height="4" fill="white"/>
    <rect x="80" y="0" width="4" height="4" fill="white"/>
    <rect x="72" y="4" width="4" height="4" fill="white"/>
    <rect x="76" y="4" width="4" height="4" fill="white"/>
    <rect x="80" y="4" width="4" height="4" fill="white"/>
    <rect x="72" y="8" width="4" height="4" fill="white"/>
    <rect x="76" y="8" width="4" height="4" fill="white"/>
    <rect x="80" y="8" width="4" height="4" fill="white"/>
    <rect x="72" y="12" width="4" height="4" fill="white"/>
    <rect x="76" y="12" width="4" height="4" fill="white"/>
    <rect x="72" y="16" width="4" height="4" fill="white"/>
    <rect x="76" y="16" width="4" height="4" fill="white"/>
    <rect x="72" y="20" width="4" height="4" fill="white"/>
    <rect x="76" y="20" width="4" height="4" fill="white"/>
  </g>
</svg>